<?xml version="1.0" encoding="utf-8"?>
<!-- Generator: Adobe Illustrator 18.0.0, SVG Export Plug-In . SVG Version: 6.00 Build 0)  -->
<!DOCTYPE svg PUBLIC "-//W3C//DTD SVG 1.1//EN" "http://www.w3.org/Graphics/SVG/1.1/DTD/svg11.dtd">
<svg version="1.1" id="Layer_1" xmlns="http://www.w3.org/2000/svg" xmlns:xlink="http://www.w3.org/1999/xlink" x="0px" y="0px"
	 viewBox="0 0 1920 1080" enable-background="new 0 0 1920 1080" xml:space="preserve">
<path fill="#FFFFFF" stroke="#000000" stroke-miterlimit="10" d="M1292.9,0"/>
<g>
	
		<linearGradient id="SVGID_1_" gradientUnits="userSpaceOnUse" x1="435.6583" y1="80.8695" x2="435.5043" y2="652.5698" gradientTransform="matrix(2.1917 0 0 1.2587 5.1855 -99.4379)">
		<stop  offset="3.281460e-007" style="stop-color:#FFD54F"/>
		<stop  offset="0.4074" style="stop-color:#FFA726"/>
	</linearGradient>
	<path fill="url(#SVGID_1_)" d="M0,0v6.3l0,0C109,38,254.1,125.7,321.1,225.4c23.4,34.8,27.4-34.4-12.8,37.4L1920,80.8V0
		C1920,0,0,0,0,0z"/>
	
		<radialGradient id="SVGID_2_" cx="21.2098" cy="90.9923" r="755.353" gradientTransform="matrix(2.1917 0 0 1.2587 5.1855 -99.4379)" gradientUnits="userSpaceOnUse">
		<stop  offset="3.281460e-007" style="stop-color:#FFD54F"/>
		<stop  offset="1" style="stop-color:#FFA726"/>
	</radialGradient>
	<path fill="url(#SVGID_2_)" d="M286.7,205.2C219.7,105.5,109,38,0,6.3l0,0V80v244.4l308.4-61.6
		C283.1,199.9,310.1,240.1,286.7,205.2z"/>
	
		<radialGradient id="SVGID_3_" cx="-170.7171" cy="98.1864" r="650.1756" gradientTransform="matrix(1.1108 0 0 1.6761 -40.2782 -147.4763)" gradientUnits="userSpaceOnUse">
		<stop  offset="3.281460e-007" style="stop-color:#FFD54F"/>
		<stop  offset="1" style="stop-color:#FFA726"/>
	</radialGradient>
	<path fill="url(#SVGID_3_)" d="M316.7,207.8C205.2,41.8,153.6,50.9,0,6.3l0,0V80v244.4l308.4-61.6
		C328,254.5,340.1,242.7,316.7,207.8z"/>
</g>
<linearGradient id="SVGID_4_" gradientUnits="userSpaceOnUse" x1="866.5287" y1="970.1346" x2="1929.5" y2="970.1346">
	<stop  offset="0.4194" style="stop-color:#FFD54F"/>
	<stop  offset="1" style="stop-color:#FFA726"/>
</linearGradient>
<path fill="none" stroke="url(#SVGID_4_)" stroke-miterlimit="10" d="M1929,743.9c0,0-217.1-72.7-480.1,11.3
	C1284.2,807.7,1101.6,904.4,943,1080C531,1536,1929,777.9,1929,743.9S1929,743.9,1929,743.9z"/>
<linearGradient id="SVGID_5_" gradientUnits="userSpaceOnUse" x1="866.5728" y1="995.7538" x2="1929.5" y2="995.7538">
	<stop  offset="3.281460e-007" style="stop-color:#FFD54F"/>
	<stop  offset="1" style="stop-color:#FFA726"/>
</linearGradient>
<path fill="none" stroke="url(#SVGID_5_)" stroke-miterlimit="10" d="M1929,743.9c0,0-213.7-45.7-473.9,35.9
	c-166.2,52.1-351.5,149-512.1,326.8c-115.2,127.5-88.8,173.5,9,150.5C1203.8,1197.8,1929,768.4,1929,743.9
	C1929,709.9,1929,743.9,1929,743.9z"/>
<linearGradient id="SVGID_6_" gradientUnits="userSpaceOnUse" x1="867.2106" y1="1010.215" x2="1929.5" y2="1010.215">
	<stop  offset="3.281460e-007" style="stop-color:#FFD54F"/>
	<stop  offset="1" style="stop-color:#FFA726"/>
</linearGradient>
<path fill="none" stroke="url(#SVGID_6_)" stroke-miterlimit="10" d="M1929,743.9c0,0-205.5-16.8-464.4,63.7
	c-167,51.9-360,137.6-521.6,316.3c-113.1,125.2-88.3,185.6,5,163.1C1194.6,1227.6,1929,768.6,1929,743.9
	C1929,709.9,1929,743.9,1929,743.9z"/>
</svg>
