<svg xmlns="http://www.w3.org/2000/svg" xmlns:xlink="http://www.w3.org/1999/xlink" id="Layer_1" x="0" y="0" enable-background="new 0 0 1920 1080" version="1.1" viewBox="0 0 1920 1080" xml:space="preserve"><path fill="#FFF" stroke="#000" stroke-miterlimit="10" d="M1292.9,0"/><g><linearGradient id="SVGID_1_" x1="435.658" x2="435.504" y1="80.87" y2="652.57" gradientTransform="matrix(2.1917 0 0 1.2587 5.1855 -99.4379)" gradientUnits="userSpaceOnUse"><stop offset="0" style="stop-color:#ffd54f"/><stop offset=".407" style="stop-color:#ffa726"/></linearGradient><path fill="url(#SVGID_1_)" d="M0,0v6.3l0,0C109,38,254.1,125.7,321.1,225.4c23.4,34.8,27.4-34.4-12.8,37.4L1920,80.8V0 C1920,0,0,0,0,0z"/><radialGradient id="SVGID_2_" cx="21.21" cy="90.992" r="755.353" gradientTransform="matrix(2.1917 0 0 1.2587 5.1855 -99.4379)" gradientUnits="userSpaceOnUse"><stop offset="0" style="stop-color:#ffd54f"/><stop offset="1" style="stop-color:#ffa726"/></radialGradient><path fill="url(#SVGID_2_)" d="M286.7,205.2C219.7,105.5,109,38,0,6.3l0,0V80v244.4l308.4-61.6 C283.1,199.9,310.1,240.1,286.7,205.2z"/><radialGradient id="SVGID_3_" cx="-170.717" cy="98.186" r="650.176" gradientTransform="matrix(1.1108 0 0 1.6761 -40.2782 -147.4763)" gradientUnits="userSpaceOnUse"><stop offset="0" style="stop-color:#ffd54f"/><stop offset="1" style="stop-color:#ffa726"/></radialGradient><path fill="url(#SVGID_3_)" d="M316.7,207.8C205.2,41.8,153.6,50.9,0,6.3l0,0V80v244.4l308.4-61.6 C328,254.5,340.1,242.7,316.7,207.8z"/></g><linearGradient id="SVGID_4_" x1="866.529" x2="1929.5" y1="970.135" y2="970.135" gradientUnits="userSpaceOnUse"><stop offset=".419" style="stop-color:#ffd54f"/><stop offset="1" style="stop-color:#ffa726"/></linearGradient><path fill="none" stroke="url(#SVGID_4_)" stroke-miterlimit="10" d="M1929,743.9c0,0-217.1-72.7-480.1,11.3	C1284.2,807.7,1101.6,904.4,943,1080C531,1536,1929,777.9,1929,743.9S1929,743.9,1929,743.9z"/><linearGradient id="SVGID_5_" x1="866.573" x2="1929.5" y1="995.754" y2="995.754" gradientUnits="userSpaceOnUse"><stop offset="0" style="stop-color:#ffd54f"/><stop offset="1" style="stop-color:#ffa726"/></linearGradient><path fill="none" stroke="url(#SVGID_5_)" stroke-miterlimit="10" d="M1929,743.9c0,0-213.7-45.7-473.9,35.9	c-166.2,52.1-351.5,149-512.1,326.8c-115.2,127.5-88.8,173.5,9,150.5C1203.8,1197.8,1929,768.4,1929,743.9	C1929,709.9,1929,743.9,1929,743.9z"/><linearGradient id="SVGID_6_" x1="867.211" x2="1929.5" y1="1010.215" y2="1010.215" gradientUnits="userSpaceOnUse"><stop offset="0" style="stop-color:#ffd54f"/><stop offset="1" style="stop-color:#ffa726"/></linearGradient><path fill="none" stroke="url(#SVGID_6_)" stroke-miterlimit="10" d="M1929,743.9c0,0-205.5-16.8-464.4,63.7	c-167,51.9-360,137.6-521.6,316.3c-113.1,125.2-88.3,185.6,5,163.1C1194.6,1227.6,1929,768.6,1929,743.9	C1929,709.9,1929,743.9,1929,743.9z"/></svg>