<svg width="1029.1" height="768" xmlns="http://www.w3.org/2000/svg">

 <g>
  <title>background</title>
  <rect fill="none" id="canvas_background" height="402" width="582" y="-1" x="-1"/>
 </g>
 <g>
  <title>Layer 1</title>
  <rect id="svg_1" height="768" width="1029.1" fill="#455A64" x="0"/>
  <circle id="svg_2" r="121.6" cy="570" cx="863" fill="#0072ff"/>
  <circle id="svg_3" r="99.9" cy="571" cx="863" fill="#4297ff"/>
  <g id="svg_13">
   <ellipse id="svg_14" ry="81.8" rx="30.6" cy="571" cx="863.2" stroke-miterlimit="10" stroke-width="8" stroke="#FFFFFF" fill="none"/>
   <ellipse id="svg_15" ry="30.6" rx="81.8" cy="571" cx="863.2" stroke-miterlimit="10" stroke-width="8" stroke="#FFFFFF" fill="none" transform="matrix(0.8174,-0.576,0.576,0.8174,-171.3309,601.4816) "/>
   <ellipse id="svg_16" ry="30.6" rx="81.8" cy="571" cx="863.2" stroke-miterlimit="10" stroke-width="8" stroke="#FFFFFF" fill="none" transform="matrix(-0.8484,-0.5293,0.5293,-0.8484,1293.2659,1512.3721) "/>
  </g>
  <path id="svg_17" d="m0,65.9l473.2,0c16.3,0 29.6,13.2 29.6,29.6l0,0c0,16.3 -13.2,29.6 -29.6,29.6l-473.2,0" fill="#0072ff"/>
  <path id="svg_18" d="m998.2,489.2c-3.4,-5.6 -7.1,-11 -11.2,-16.1c-28.9,-36.6 -73.7,-60.1 -124,-60.1c-40.5,0 -77.5,15.3 -105.5,40.3c-26.2,23.5 -44.5,55.6 -50.5,91.9" stroke-miterlimit="10" stroke-width="8" stroke="#FFFFFF" fill="none"/>
  <path id="svg_19" d="m728.8,654.4c7.9,12.7 17.6,24.2 28.7,34.2c28,25.1 64.9,40.3 105.5,40.3c15.8,0 31.1,-2.3 45.5,-6.7" stroke-miterlimit="10" stroke-width="8" stroke="#FFFFFF" fill="none"/>
  <path id="svg_20" d="m587.1,125l-37.5,0c-16.3,0 -29.6,-13.2 -29.6,-29.6l0,0c0,-16.3 13.2,-29.6 29.6,-29.6l37.5,0c16.3,0 29.6,13.2 29.6,29.6l0,0c0,16.4 -13.3,29.6 -29.6,29.6z" fill="#0072ff"/>
  <path id="svg_21" d="m679.3,-10.6c1,3.5 2.1,7.1 3.2,10.6c50.5,160.6 182,285.3 346.6,326.2c9.6,2.4 19.3,4.5 29.1,6.3" stroke-miterlimit="10" stroke-width="40" stroke="#FFFFFF" fill="none"/>
  <ellipse id="svg_22" ry="34.7" rx="33.6" cy="645.3" cx="165.8" stroke-miterlimit="10" stroke-width="16" stroke="#607D8B" fill="none"/>
  <polygon id="svg_23" points="129,709 92.3,645 129,581 202.6,581   239.3,645 202.6,709 " stroke-miterlimit="10" stroke-width="16" stroke="#607D8B" fill="none"/>
  <circle id="svg_24" r="11.3" cy="581" cx="202.6" fill="#4297ff"/>
  <circle id="svg_25" r="11.3" cy="645" cx="239.6" fill="#4297ff"/>
  <circle id="svg_26" r="11.3" cy="709" cx="202.6" fill="#4297ff"/>
  <circle id="svg_27" r="11.3" cy="709" cx="128.6" fill="#4297ff"/>
  <circle id="svg_28" r="11.3" cy="581" cx="128.6" fill="#4297ff"/>
  <circle id="svg_29" r="11.3" cy="645" cx="92.6" fill="#4297ff"/>
  <polygon id="svg_30" points="944,44.7 955.8,78.4 990.2,87.9 961.8,109.5 963.5,145.1 934.1,124.8 900.7,137.4   911,103.2 888.7,75.3 924.4,74.6 " fill="#607D8B" opacity="0.24"/>
  <polygon id="svg_31" points="329.4,471.2 344.7,489.9 368.8,487.9 355.8,508.2 365.1,530.6 341.7,524.4   323.4,540.2 322,516 301.3,503.5 323.9,494.7 " fill="#607D8B" opacity="0.12"/>
  <polygon id="svg_32" points="445.4,599.2 460.7,617.9 484.8,615.9 471.8,636.2 481.1,658.6 457.7,652.4   439.4,668.2 438,644 417.3,631.5 439.9,622.7 " fill="#607D8B" opacity="0.29"/>
  <polygon id="svg_33" points="536.4,455.2 551.7,473.9 575.8,471.9 562.8,492.2 572.1,514.6 548.7,508.4   530.4,524.2 529,500 508.3,487.5 530.9,478.7 " fill="#607D8B" opacity="0.28"/>
  <polygon id="svg_34" points="517.7,165.7 517.5,189.9 537.4,203.7 514.3,211 507.3,234.2 493.2,214.5 469,215   483.3,195.5 475.4,172.7 498.4,180.3 " fill="#607D8B" opacity="0.27"/>
  <polygon id="svg_35" points="196.6,151.8 195,176 214.1,190.9 190.6,196.9 182.3,219.6 169.4,199.2 145.2,198.3   160.6,179.7 154,156.4 176.5,165.3 " fill="#607D8B" opacity="0.4"/>
  <polygon id="svg_36" points="205.5,443.9 201.8,467.8 219.4,484.4 195.5,488.3 185.1,510.1 174.1,488.6   150.1,485.5 167.1,468.4 162.7,444.6 184.2,455.5 " fill="#607D8B" opacity="0.28"/>
  <polygon id="svg_37" points="687.4,659.4 672.6,678.6 680,701.6 657.3,693.5 637.7,707.6 638.3,683.5   618.8,669.2 642,662.4 649.5,639.4 663.2,659.3 " fill="#607D8B" opacity="0.28"/>
  <text stroke="null" transform="matrix(1.0639343035161204,0,0,1.2054260969161987,-7.585158485679857,-54.187552627176046) " xml:space="preserve" text-anchor="start" font-family="Helvetica, Arial, sans-serif" font-size="98" id="svg_38" y="373.250808" x="94.508383" stroke-opacity="null" stroke-width="0" fill="#ffffff">DJOURNAL</text>
 </g>
</svg>