<?xml version="1.0" encoding="utf-8"?>
<!-- Generator: Adobe Illustrator 18.0.0, SVG Export Plug-In . SVG Version: 6.00 Build 0)  -->
<!DOCTYPE svg PUBLIC "-//W3C//DTD SVG 1.1//EN" "http://www.w3.org/Graphics/SVG/1.1/DTD/svg11.dtd">
<svg version="1.1" id="Layer_1" xmlns="http://www.w3.org/2000/svg" xmlns:xlink="http://www.w3.org/1999/xlink" x="0px" y="0px"
	 viewBox="0 0 1080 1080" enable-background="new 0 0 1080 1080" xml:space="preserve">
<linearGradient id="SVGID_1_" gradientUnits="userSpaceOnUse" x1="65.7028" y1="475.289" x2="1016.1494" y2="475.289">
	<stop  offset="1.076729e-007" style="stop-color:#4685F1"/>
	<stop  offset="1" style="stop-color:#466FF1"/>
</linearGradient>
<path fill="url(#SVGID_1_)" d="M1010.6,490.5l-453,232.7c-7.4,7-19.4,7-26.8,0l-459.7-239c-7.4-7-7.4-18.4,0-25.4l453-232.7
	c9.3-4.9,16.7-5.4,26.8,0l459.7,239C1018,472,1018,483.5,1010.6,490.5z"/>
<path fill="#205BBA" d="M302,802c0,0-0.5,57.7,236.4,57.7c235.4,0,235.9-57.7,235.9-57.7l-0.4-266.4l-471.1,1.5L302,802z"/>
<path fill="#3563CF" d="M774.3,802.2c0,0,0-79.4-235.4-79.4C302,722.8,302,802.2,302,802.2V537.1c0,0,0-110.3,236.1-110.3
	s236.1,110.3,236.1,110.3V802.2z"/>
<polygon fill="#3563CF" points="146,420.5 146,579 157.8,579 158.3,414.2 "/>
<path fill="#3563CF" d="M143.8,588.3c0,0,3.2,0.7,8.1,0.7c4.8,0,7.8-0.7,7.8-0.7l-1.9-13.3h-12.1L143.8,588.3z"/>
<path fill="#E5E500" d="M145.1,591.8c0,0-2.8,10.7-4.3,100.8c0,0,3.5-1.5,4.7,0.6c0.1,0.1,2.4-0.6,3-0.6c0.9,0.1,3.2,1.4,5.1,0.3
	c2.5-1.5,3.3,0.7,4.5,0.5c1.8-0.3,3.8-1.8,4.8-1.4c0-75.4-5.5-100.3-5.5-100.3S149.9,590,145.1,591.8z"/>
<path fill="#4685F1" d="M145.7,578.8c1.2-1.2,11.2-1,12.1,0c5.2,6,1.9,13.2,1.9,13.2s-3.2-0.8-7.8-0.8c-5.1,0-8.2,0.8-8.2,0.8
	S139.4,584.7,145.7,578.8z"/>
</svg>
