<?xml version="1.0" encoding="utf-8"?>
<!-- Generator: Adobe Illustrator 18.0.0, SVG Export Plug-In . SVG Version: 6.00 Build 0)  -->
<!DOCTYPE svg PUBLIC "-//W3C//DTD SVG 1.1//EN" "http://www.w3.org/Graphics/SVG/1.1/DTD/svg11.dtd">
<svg version="1.1" id="Layer_1" xmlns="http://www.w3.org/2000/svg" xmlns:xlink="http://www.w3.org/1999/xlink" x="0px" y="0px"
	 viewBox="0 0 1080 1080" enable-background="new 0 0 1080 1080" xml:space="preserve">
<g>
	<g>
		<ellipse fill="#4DB6AC" cx="464.4" cy="161.6" rx="320.6" ry="79.9"/>
		<path fill="#26A69A" d="M143.8,664.4c0,44.1,143.1,79.9,320.1,79.9S784,708.5,784,664.4V487.3c0,44.1-143.1,79.9-320.1,79.9
			s-320.4-35.8-320.4-79.9L143.8,664.4z"/>
		<path fill="#80CBC4" d="M143.8,161.6c0,44.1,143.1,79.9,320.1,79.9S785,205.8,785,161.6l-1,165.1c0,44.1-143.1,79.9-320.1,79.9
			s-320.4-35.8-320.4-79.9L143.8,161.6z"/>
		<path fill="#4DB6AC" d="M143.8,323.7c0,44.1,143.1,79.9,320.1,79.9S784,367.8,784,323.7v165.1c0,44.1-143.1,79.9-320.1,79.9
			s-320.4-35.8-320.4-79.9L143.8,323.7z"/>
	</g>
	<g>
		<g>
			<g>
				<rect x="710.6" y="798.8" fill="#FDCC9B" width="94.3" height="105.6"/>
				<path fill="#FCBC85" d="M710.6,811.3c0,0,39.7,25.3,94.3,19.4v-31.8h-94.3V811.3z"/>
				<ellipse fill="#FCBC85" cx="574.7" cy="635.1" rx="46" ry="52.5"/>
				<ellipse fill="#FCBC85" cx="940.9" cy="635.1" rx="46" ry="52.5"/>
				<path fill="#FDCC9B" d="M940.7,534.9c0-77.3-56.6-133.9-182.9-133.9s-182.9,56.6-182.9,133.9s-13.2,280.9,182.9,280.9
					S940.7,612.2,940.7,534.9z"/>
				<g display="none">
					<g display="inline">
						<ellipse fill="#3B2519" cx="668.7" cy="622.5" rx="19.8" ry="21.7"/>
						<circle fill="#FFFFFF" cx="660.1" cy="613" r="5.9"/>
					</g>
					<path display="inline" fill="#51362A" d="M637,568.8c9.4,4.7,24.4-15.9,58.8,2c6.3,3.3,10-27.9-26.9-27.9
						C637,542.9,631.4,566,637,568.8z"/>
					<g display="inline">
						<ellipse fill="#3B2519" cx="849.3" cy="622.5" rx="19.8" ry="21.7"/>
						<circle fill="#FFFFFF" cx="840.7" cy="613" r="5.9"/>
					</g>
					<path display="inline" fill="#51362A" d="M878.5,568.8c-9.4,4.7-24.4-15.9-58.8,2c-6.3,3.3-10-27.9,26.9-27.9
						C878.5,542.9,884.2,566,878.5,568.8z"/>
				</g>
				<path display="none" fill="#FCBC85" d="M757.8,698.8c-19.6,0-31.3-14.6-31.3-7.5c0,7.1,5.7,20.5,31.3,20.5
					c25.7,0,31.3-13.4,31.3-20.5C789.1,684.2,777.3,698.8,757.8,698.8z"/>
				<path display="none" fill="#FCBC85" d="M757.8,763.8c-6.8,0-10.8-5.1-10.8-2.6s2,7.1,10.8,7.1c8.9,0,10.8-4.6,10.8-7.1
					S764.5,763.8,757.8,763.8z"/>
				<path display="none" fill="#F7945E" d="M757.8,745.8c-31,0-49.7-12.6-49.7-9.4c0,3.2,9,15.8,49.7,15.8s49.7-12.6,49.7-15.8
					C807.5,733.2,788.8,745.8,757.8,745.8z"/>
			</g>
			<path fill="#4DB6AC" d="M757.8,841.3V960H528.7C528.7,912,649.4,841.3,757.8,841.3z"/>
			<path fill="#4DB6AC" d="M757.8,841.3V960h229.1C986.9,912,866.2,841.3,757.8,841.3z"/>
			<path fill="#4DB6AC" d="M757.8,841.3c-23.1,0-46.7,3.2-69.6,8.7c0.2,0.2,25.4,32.8,69.6,32.8c40.9,0,68.1-27.9,72-32.2
				C806.2,844.7,781.7,841.3,757.8,841.3z"/>
			<path fill="#FDCC9B" d="M710.6,845.4c0,0,13.8,17.1,47.1,17.1s47.1-17.1,47.1-17.1S756,827.6,710.6,845.4z"/>
			<path fill="#51362A" d="M908.2,384.5c0,0-67.9-86.3-209-53.7c-141.1,32.5-151.6,117.4-147.4,199.9c4.2,82.6,15.6,131,28.9,125
				c13.4-6,6.4-60.5,7.8-73.1s14.1-69.4,99.9-61c85.8,8.5,158.1-22.6,158.1-22.6s29.1,36.8,48.3,43.8c38.3,14.1,25.7,108,40.7,108
				S1024.1,434,908.2,384.5z"/>
		</g>
		<path fill="#FFDC4A" d="M757.8,900.7l0,59.4h229.1c0-41.2-88.5-98.9-181.9-114.7C795.7,856.2,757.8,900.7,757.8,900.7z"/>
		<path fill="#FFEB3B" d="M710.6,845.4c-93.4,15.8-181.9,73.5-181.9,114.7h229.1l0-59.4C757.8,900.7,719.8,856.2,710.6,845.4z"/>
		<polygon fill="#9A9EA6" points="710.6,845.4 757.8,900.7 726,918 		"/>
		<polygon fill="#9A9EA6" points="804.9,845.4 757.8,900.7 789.6,918 		"/>
	</g>
</g>
</svg>
