<?xml version="1.0" encoding="utf-8"?>
<!-- Generator: Adobe Illustrator 18.0.0, SVG Export Plug-In . SVG Version: 6.00 Build 0)  -->
<!DOCTYPE svg PUBLIC "-//W3C//DTD SVG 1.1//EN" "http://www.w3.org/Graphics/SVG/1.1/DTD/svg11.dtd">
<svg version="1.1" id="Layer_1" xmlns="http://www.w3.org/2000/svg" xmlns:xlink="http://www.w3.org/1999/xlink" x="0px" y="0px"
	 viewBox="0 0 1080 1080" enable-background="new 0 0 1080 1080" xml:space="preserve">
<g>
	<g>
		<g>
			<g>
				<rect x="476.1" y="761" fill="#FDCC9B" width="128.6" height="144"/>
				<path fill="#FCBC85" d="M476.1,777.9c0,0,54.1,34.4,128.6,26.5v-43.4H476.1V777.9z"/>
				<ellipse fill="#FCBC85" cx="290.7" cy="537.6" rx="62.7" ry="71.6"/>
				<ellipse fill="#FCBC85" cx="790.1" cy="537.6" rx="62.7" ry="71.6"/>
				<path fill="#FDCC9B" d="M789.9,400.9c0-105.4-77.1-182.6-249.4-182.6S291,295.5,291,400.9s-18,383.2,249.4,383.2
					S789.9,506.4,789.9,400.9z"/>
				<g display="none">
					<g display="inline">
						<ellipse fill="#3B2519" cx="418.9" cy="520.5" rx="27" ry="29.6"/>
						<circle fill="#FFFFFF" cx="407.1" cy="507.4" r="8.1"/>
					</g>
					<path display="inline" fill="#51362A" d="M375.7,447.2c12.8,6.4,33.3-21.7,80.2,2.7c8.6,4.5,13.7-38.1-36.6-38.1
						C375.7,411.9,368,443.4,375.7,447.2z"/>
					<g display="inline">
						<ellipse fill="#3B2519" cx="665.2" cy="520.5" rx="27" ry="29.6"/>
						<circle fill="#FFFFFF" cx="653.5" cy="507.4" r="8.1"/>
					</g>
					<path display="inline" fill="#51362A" d="M705.1,447.2c-12.8,6.4-33.3-21.7-80.2,2.7c-8.6,4.5-13.7-38.1,36.6-38.1
						C705.1,411.9,712.8,443.4,705.1,447.2z"/>
				</g>
				<path display="none" fill="#FCBC85" d="M540.4,624.5c-26.7,0-42.8-19.9-42.8-10.3c0,9.6,7.7,28,42.8,28c35,0,42.8-18.3,42.8-28
					C583.2,604.6,567.1,624.5,540.4,624.5z"/>
				<path display="none" fill="#FCBC85" d="M540.4,713.2c-9.2,0-14.8-6.9-14.8-3.6s2.7,9.7,14.8,9.7s14.8-6.3,14.8-9.7
					S549.6,713.2,540.4,713.2z"/>
				<path display="none" fill="#F7945E" d="M540.4,688.6c-42.3,0-67.8-17.2-67.8-12.9s12.2,21.5,67.8,21.5
					c55.5,0,67.8-17.2,67.8-21.5C608.2,671.4,582.7,688.6,540.4,688.6z"/>
			</g>
			<path fill="#333535" d="M540.4,818.8v162H228C228,915.2,392.5,818.8,540.4,818.8z"/>
			<path fill="#333535" d="M540.4,818.8v162h312.4C852.8,915.2,688.3,818.8,540.4,818.8z"/>
			<path fill="#333535" d="M540.4,818.8c-31.5,0-63.7,4.4-94.9,11.9c0.2,0.3,34.6,44.7,94.9,44.7c55.8,0,92.9-38,98.3-43.9
				C606.4,823.5,573,818.8,540.4,818.8z"/>
			<path fill="#FDCC9B" d="M476.1,824.4c0,0,18.8,23.3,64.3,23.3c45.5,0,64.3-23.3,64.3-23.3S538,800.1,476.1,824.4z"/>
			<path fill="#51362A" d="M745.5,195.8c0,0-92.6-117.7-285-73.3c-192.4,44.4-206.8,160.1-201,272.7
				c5.8,112.6,21.2,178.6,39.5,170.5c18.2-8.2,8.8-82.5,10.7-99.6c1.9-17.2,19.3-94.7,136.3-83.1c117,11.6,215.6-30.9,215.6-30.9
				s39.7,50.2,65.8,59.8c52.2,19.2,35.1,147.3,55.5,147.3S903.6,263.3,745.5,195.8z"/>
		</g>
		<path fill="#8A8F93" d="M540.4,899.8l0,81h312.4c0-56.1-120.7-134.9-248.2-156.4C592.1,839.1,540.4,899.8,540.4,899.8z"/>
		<path fill="#9A9EA6" d="M476.1,824.4C348.7,845.9,228,924.7,228,980.8h312.4l0-81C540.4,899.8,488.7,839.1,476.1,824.4z"/>
		<polygon fill="#FFDC4A" points="476.1,824.4 540.4,899.8 497,923.5 		"/>
		<polygon fill="#FFDC4A" points="604.7,824.4 540.4,899.8 583.8,923.5 		"/>
	</g>
	<g>
		<g>
			<path d="M751.5,466.6c-47-7.4-136.8-8.8-201.5,8.8c-4.4,0-23.5,0-27.9,0c-64.7-17.7-154.4-16.2-201.5-8.8
				c-5.8,1.5-5.8,26.4-1.5,27.9c8.8,4.4,13.2,13.2,13.2,13.2s2.9,8.8,10.3,41.2c7.3,32.4,26.4,38.4,26.4,38.4s23.5,5.8,50,5.8
				c26.5,0,42.7-1.5,60.3-10.3s25-32.4,25-32.4s8.8-20.6,14.7-39.7c1.5-5.9,30.9-5.9,32.4,0c5.8,19.2,14.7,39.7,14.7,39.7
				s7.4,23.5,25,32.4c17.7,8.8,33.8,10.3,60.3,10.3c26.4,0,50-5.8,50-5.8s19.2-4.4,26.4-38.2c7.4-33.8,10.3-41.2,10.3-41.2
				s4.4-8.8,13.2-13.2C757.4,493.1,757.4,466.6,751.5,466.6z"/>
		</g>
	</g>
</g>
</svg>
