<svg xmlns="http://www.w3.org/2000/svg" xmlns:xlink="http://www.w3.org/1999/xlink" id="Layer_1" x="0" y="0" enable-background="new 0 0 1029.1 768" version="1.1" viewBox="0 0 1029.1 768" xml:space="preserve"><rect width="1029.1" height="768" x="0" fill="#455A64"/><circle cx="863" cy="570" r="121.6" fill="#FF3D00"/><circle cx="863" cy="571" r="99.9" fill="#FF6E40"/><g><path fill="#FFF" d="M88.5,280.9c6.2-1.6,13.5-2.6,22.3-2.6c12.3,0,22.7,3,29.7,10c6.6,6.4,10,16.1,10,27.7 c0,12.3-3,20.7-8.2,27.5c-7.4,10-19.7,14.9-31.6,14.9c-2.6,0-4.6,0-6.8-0.2V413H88.5V280.9z M103.8,345.1c1.8,0.4,3.4,0.6,6,0.6 c15.1,0,25.3-10,25.3-28.9c0-13.7-5.8-26.1-22.7-26.1c-3.6,0-6.6,0.4-8.6,1V345.1z"/><path fill="#FFF" d="M172.6,372.8l-9,40.2H149l30.6-134.1h16.9L226.4,413h-15.1l-9-40.2H172.6z M200.3,360.5l-7-34 c-2-9.6-3.8-20.7-5.4-30.6h-0.8c-1.6,10.1-3.6,21.7-5.4,30.6l-7,34H200.3z"/><path fill="#FFF" d="M246.9,292.6h-24.5v-13.7h64.3v13.7h-24.5V413h-15.3V292.6z"/><path fill="#FFF" d="M316.9,278.9v57.5h37.6v-57.5h15.3V413h-15.3v-62.7h-37.6V413h-15.3V278.9H316.9z"/><path fill="#FFF" d="M411.6,413l-25.9-134.1h15.9l11.3,64.7c2.8,16.9,5,31.8,6.6,48.4h0.8c1.6-16.9,4.8-31.4,8-48.6l12.3-64.5 h13.1l12.3,63.1c3,15.9,6,31.2,7.8,50h0.6c2.2-19.3,4.6-33.8,7.2-49.2l11.1-63.9h14.9L481.7,413h-14.9l-12.9-65.3 c-2.6-14.1-5.2-29.3-6.8-44h-0.4c-2,15.1-4.2,29.7-7.4,44.6L426,413H411.6z"/><path fill="#FFF" d="M531.6,372.8l-9,40.2h-14.7l30.6-134.1h16.9L585.4,413h-15.1l-9-40.2H531.6z M559.3,360.5l-7-34 c-2-9.6-3.8-20.7-5.4-30.6h-0.8c-1.6,10.1-3.6,21.7-5.4,30.6l-7,34H559.3z"/><path fill="#FFF" d="M611.2,413v-56.7l-29.5-77.4h16.1l11.9,33.6c3.4,9.4,7,19.9,10,30.2h0.4c2.8-10.3,6.2-20.5,9.8-30.8 l11.3-33h16.1l-30.8,76.8V413H611.2z"/><path fill="#FFF" d="M665.2,395.3c4.6,3,12.5,5.4,19.3,5.4c13.9,0,22.3-9.2,22.3-22.7c0-12.3-7.2-19.9-17.7-27.9 c-10.5-7.4-25.3-19.9-25.3-37.2c0-20.3,14.1-35.2,35.4-35.2c8.4,0,15.7,2.6,18.9,5l-3.8,13.1c-3.4-2.4-9-4.6-15.9-4.6 c-13.1,0-19.3,10-19.3,19.1c0,13.3,7,18.5,19.7,27.7c16.1,11.3,23.3,23.7,23.3,38.6c0,23.1-16.3,37.6-37.6,37.6 c-9.2,0-18.9-3-22.7-5.8L665.2,395.3z"/></g><g><ellipse cx="863.2" cy="571" fill="none" stroke="#FFF" stroke-miterlimit="10" stroke-width="8" rx="30.6" ry="81.8"/><ellipse cx="863.2" cy="571" fill="none" stroke="#FFF" stroke-miterlimit="10" stroke-width="8" rx="81.8" ry="30.6" transform="matrix(0.8174 -0.576 0.576 0.8174 -171.3309 601.4816)"/><ellipse cx="863.2" cy="571" fill="none" stroke="#FFF" stroke-miterlimit="10" stroke-width="8" rx="81.8" ry="30.6" transform="matrix(-0.8484 -0.5293 0.5293 -0.8484 1293.2659 1512.3721)"/></g><path fill="#FF3D00" d="M0,65.9h473.2c16.3,0,29.6,13.2,29.6,29.6v0c0,16.3-13.2,29.6-29.6,29.6H0"/><path fill="none" stroke="#FFF" stroke-miterlimit="10" stroke-width="8" d="M998.2,489.2c-3.4-5.6-7.1-11-11.2-16.1	c-28.9-36.6-73.7-60.1-124-60.1c-40.5,0-77.5,15.3-105.5,40.3c-26.2,23.5-44.5,55.6-50.5,91.9"/><path fill="none" stroke="#FFF" stroke-miterlimit="10" stroke-width="8" d="M728.8,654.4c7.9,12.7,17.6,24.2,28.7,34.2	c28,25.1,64.9,40.3,105.5,40.3c15.8,0,31.1-2.3,45.5-6.7"/><path fill="#FF3D00" d="M587.1,125h-37.5c-16.3,0-29.6-13.2-29.6-29.6v0c0-16.3,13.2-29.6,29.6-29.6h37.5	c16.3,0,29.6,13.2,29.6,29.6v0C616.7,111.8,603.4,125,587.1,125z"/><path fill="none" stroke="#FFF" stroke-miterlimit="10" stroke-width="40" d="M679.3-10.6c1,3.5,2.1,7.1,3.2,10.6	c50.5,160.6,182,285.3,346.6,326.2c9.6,2.4,19.3,4.5,29.1,6.3"/><ellipse cx="165.8" cy="645.3" fill="none" stroke="#607D8B" stroke-miterlimit="10" stroke-width="16" rx="33.6" ry="34.7"/><polygon fill="none" stroke="#607D8B" stroke-miterlimit="10" stroke-width="16" points="129 709 92.3 645 129 581 202.6 581 239.3 645 202.6 709"/><circle cx="202.6" cy="581" r="11.3" fill="#FF6E40"/><circle cx="239.6" cy="645" r="11.3" fill="#FF6E40"/><circle cx="202.6" cy="709" r="11.3" fill="#FF6E40"/><circle cx="128.6" cy="709" r="11.3" fill="#FF6E40"/><circle cx="128.6" cy="581" r="11.3" fill="#FF6E40"/><circle cx="92.6" cy="645" r="11.3" fill="#FF6E40"/><polygon fill="#607D8B" points="944 44.7 955.8 78.4 990.2 87.9 961.8 109.5 963.5 145.1 934.1 124.8 900.7 137.4 911 103.2 888.7 75.3 924.4 74.6" opacity=".24"/><polygon fill="#607D8B" points="329.4 471.2 344.7 489.9 368.8 487.9 355.8 508.2 365.1 530.6 341.7 524.4 323.4 540.2 322 516 301.3 503.5 323.9 494.7" opacity=".12"/><polygon fill="#607D8B" points="445.4 599.2 460.7 617.9 484.8 615.9 471.8 636.2 481.1 658.6 457.7 652.4 439.4 668.2 438 644 417.3 631.5 439.9 622.7" opacity=".29"/><polygon fill="#607D8B" points="536.4 455.2 551.7 473.9 575.8 471.9 562.8 492.2 572.1 514.6 548.7 508.4 530.4 524.2 529 500 508.3 487.5 530.9 478.7" opacity=".28"/><polygon fill="#607D8B" points="517.7 165.7 517.5 189.9 537.4 203.7 514.3 211 507.3 234.2 493.2 214.5 469 215 483.3 195.5 475.4 172.7 498.4 180.3" opacity=".27"/><polygon fill="#607D8B" points="196.6 151.8 195 176 214.1 190.9 190.6 196.9 182.3 219.6 169.4 199.2 145.2 198.3 160.6 179.7 154 156.4 176.5 165.3" opacity=".4"/><polygon fill="#607D8B" points="205.5 443.9 201.8 467.8 219.4 484.4 195.5 488.3 185.1 510.1 174.1 488.6 150.1 485.5 167.1 468.4 162.7 444.6 184.2 455.5" opacity=".28"/><polygon fill="#607D8B" points="687.4 659.4 672.6 678.6 680 701.6 657.3 693.5 637.7 707.6 638.3 683.5 618.8 669.2 642 662.4 649.5 639.4 663.2 659.3" opacity=".28"/></svg>